<?xml version="1.0" encoding="UTF-8" standalone="no"?>
<!-- Created with Inkscape (http://www.inkscape.org/) -->

<svg
   width="164.27045"
   height="193.87224"
   viewBox="0 0 41.067612 48.46806"
   version="1.1"
   id="svg1"
   inkscape:version="1.3 (0e150ed6c4, 2023-07-21)"
   sodipodi:docname="Robot.svg"
   inkscape:export-filename="Robot.png"
   inkscape:export-xdpi="96"
   inkscape:export-ydpi="96"
   xmlns:inkscape="http://www.inkscape.org/namespaces/inkscape"
   xmlns:sodipodi="http://sodipodi.sourceforge.net/DTD/sodipodi-0.dtd"
   xmlns="http://www.w3.org/2000/svg"
   xmlns:svg="http://www.w3.org/2000/svg">
  <sodipodi:namedview
     id="namedview1"
     pagecolor="#ffffff"
     bordercolor="#000000"
     borderopacity="0.25"
     inkscape:showpageshadow="2"
     inkscape:pageopacity="0.0"
     inkscape:pagecheckerboard="0"
     inkscape:deskcolor="#d1d1d1"
     inkscape:document-units="mm"
     inkscape:zoom="2.0686842"
     inkscape:cx="114.32388"
     inkscape:cy="76.618751"
     inkscape:window-width="1920"
     inkscape:window-height="1017"
     inkscape:window-x="1912"
     inkscape:window-y="-8"
     inkscape:window-maximized="1"
     inkscape:current-layer="layer1"
     showgrid="false" />
  <defs
     id="defs1">
    <inkscape:path-effect
       effect="tiling"
       id="path-effect11"
       is_visible="true"
       lpeversion="1"
       unit="px"
       seed="1;1"
       lpesatellites=""
       num_rows="1"
       num_cols="7"
       gapx="15"
       gapy="18"
       offset="0"
       offset_type="false"
       scale="0"
       rotate="0"
       mirrorrowsx="false"
       mirrorrowsy="false"
       mirrorcolsx="false"
       mirrorcolsy="false"
       mirrortrans="false"
       shrink_interp="false"
       split_items="false"
       link_styles="false"
       interpolate_scalex="false"
       interpolate_scaley="true"
       interpolate_rotatex="false"
       interpolate_rotatey="true"
       random_scale="false"
       random_rotate="false"
       random_gap_y="false"
       random_gap_x="false"
       transformorigin="" />
    <inkscape:path-effect
       effect="mirror_symmetry"
       start_point="41.205519,18.650326"
       end_point="-0.24923365,18.650326"
       center_point="20.478143,18.650326"
       id="path-effect8"
       is_visible="true"
       lpeversion="1.2"
       lpesatellites=""
       mode="vertical"
       discard_orig_path="false"
       fuse_paths="true"
       oposite_fuse="true"
       split_items="false"
       split_open="false"
       link_styles="false" />
  </defs>
  <g
     inkscape:label="Layer 1"
     inkscape:groupmode="layer"
     id="layer1"
     transform="matrix(0,-1.1691798,1.1691798,0,-1.2717782,48.176661)"
     inkscape:path-effect="#path-effect8">
    <path
       style="fill:#10141f;stroke:#a53030;stroke-width:1.7106;stroke-dasharray:none"
       d="m 3.3952533,11.762004 -2.170621,0.516814 2e-7,2.532391 2.2223027,0.41345 m -0.051682,10.313989 -2.170621,-0.516814 2e-7,-2.532391 2.2223027,-0.41345"
       id="path1"
       inkscape:original-d="m 3.3952533,11.762004 -2.170621,0.516814 2e-7,2.532391 2.2223027,0.41345"
       sodipodi:nodetypes="cccc" />
    <path
       style="fill:#151d28;stroke:#a53030;stroke-width:1.7106;stroke-linecap:butt;stroke-linejoin:miter;stroke-dasharray:none"
       d="m 28.572314,10.930666 8.093148,-0.09062 3.635548,2.281887 0.03867,2.513943 -2.173299,0.499646 -2.21483,-1.507546 -6.80688,0.07302 z m 0,15.43932 8.093148,0.09062 3.635548,-2.281887 0.03867,-2.513943 -2.173299,-0.499646 -2.21483,1.507546 -6.80688,-0.07302 z"
       id="path8"
       inkscape:original-d="m 28.572314,10.930666 8.093148,-0.09062 3.635548,2.281887 0.03867,2.513943 -2.173299,0.499646 -2.21483,-1.507546 -6.80688,0.07302 z"
       sodipodi:nodetypes="cccccccc" />
    <path
       style="fill:#151d28;stroke:#a53030;stroke-width:1.7106;stroke-linejoin:bevel;stroke-dasharray:none"
       id="rect5"
       width="31.666037"
       height="6.0593786"
       x="0.60606754"
       y="1.9430529"
       sodipodi:type="rect"
       d="M 0.60606754,1.9430529 H 32.272104 V 8.0024315 H 0.60606754 Z m 0,33.4145461 H 32.272104 V 29.29822 H 0.60606754 Z" />
    <path
       style="fill:#151d28;stroke:#a53030;stroke-width:1.7106;stroke-linecap:butt;stroke-linejoin:miter;stroke-dasharray:none"
       d="m 32.492848,0.7715541 0.0547,6.2900606 m -0.0547,28.0228933 0.0547,-6.29006 m 3.96875,-28.0228939 0.0547,6.2900606 m -0.0547,28.0228933 0.0547,-6.29006 m 3.96875,-28.0228939 0.0547,6.2900606 m -0.0547,28.0228933 0.0547,-6.29006 m 3.96875,-28.0228939 0.0547,6.2900606 m -0.0547,28.0228933 0.0547,-6.29006 m 3.96875,-28.0228939 0.0547,6.2900606 m -0.0547,28.0228933 0.0547,-6.29006 m 3.96875,-28.0228939 0.0547,6.2900606 m -0.0547,28.0228933 0.0547,-6.29006 m 3.96875,-28.0228939 0.0547,6.2900606 m -0.0547,28.0228933 0.0547,-6.29006"
       id="path10"
       inkscape:original-d="m 32.492848,0.7715541 0.0547,6.2900606"
       inkscape:path-effect="#path-effect11"
       transform="translate(-27.987828,0.72229461)" />
    <path
       style="fill:#151d28;stroke:#a53030;stroke-width:1.7106;stroke-linejoin:bevel;stroke-dasharray:none"
       id="rect1"
       width="26.491995"
       height="13.601789"
       x="3.581182"
       y="6.2670674"
       sodipodi:type="rect"
       d="M 3.5820313,6.2675781 V 18.650391 31.033203 H 30.072266 V 18.650391 6.2675781 Z" />
    <path
       style="fill:#151d28;stroke:#a53030;stroke-width:1.7106;stroke-linejoin:bevel;stroke-dasharray:none"
       id="rect2"
       width="8.4413567"
       height="9.3673115"
       x="14.772373"
       y="10.487745"
       sodipodi:type="rect"
       d="m 14.771484,10.488281 v 8.16211 8.162109 h 8.441407 v -8.162109 -8.16211 z" />
    <path
       style="fill:#151d28;stroke:#a53030;stroke-width:1.7106;stroke-linejoin:bevel;stroke-dasharray:none"
       id="rect3"
       width="2.8777351"
       height="5.9473195"
       x="23.676254"
       y="11.670428"
       sodipodi:type="rect"
       d="m 23.676254,11.670428 h 2.877735 v 5.94732 h -2.877735 z m 0,13.959795 h 2.877735 v -5.947319 h -2.877735 z" />
    <path
       style="fill:#151d28;stroke:#a53030;stroke-width:1.7106;stroke-linecap:butt;stroke-linejoin:miter;stroke-dasharray:none"
       d="M 11.380123,5.9676912 9.1211666,13.118812 3.7226572,15.047257 M 11.380123,31.33296 9.1211666,24.18184 3.7226572,22.253395"
       id="path9"
       inkscape:original-d="M 11.380123,5.9676912 9.1211666,13.118812 3.7226572,15.047257"
       sodipodi:nodetypes="ccc" />
  </g>
</svg>
