<?xml version="1.0" encoding="UTF-8" standalone="no"?>
<!-- Created with Inkscape (http://www.inkscape.org/) -->

<svg
   width="536.42706"
   height="537.66577"
   viewBox="0 0 134.10677 134.41644"
   version="1.1"
   id="svg1"
   inkscape:version="1.3 (0e150ed6c4, 2023-07-21)"
   sodipodi:docname="CobaltDeposit.svg"
   inkscape:export-filename="CobaltDeposit.png"
   inkscape:export-xdpi="96"
   inkscape:export-ydpi="96"
   xmlns:inkscape="http://www.inkscape.org/namespaces/inkscape"
   xmlns:sodipodi="http://sodipodi.sourceforge.net/DTD/sodipodi-0.dtd"
   xmlns="http://www.w3.org/2000/svg"
   xmlns:svg="http://www.w3.org/2000/svg">
  <sodipodi:namedview
     id="namedview1"
     pagecolor="#ffffff"
     bordercolor="#000000"
     borderopacity="0.25"
     inkscape:showpageshadow="2"
     inkscape:pageopacity="0.0"
     inkscape:pagecheckerboard="0"
     inkscape:deskcolor="#d1d1d1"
     inkscape:document-units="px"
     inkscape:zoom="0.73139029"
     inkscape:cx="341.13114"
     inkscape:cy="279.60448"
     inkscape:window-width="1920"
     inkscape:window-height="1017"
     inkscape:window-x="1912"
     inkscape:window-y="-8"
     inkscape:window-maximized="1"
     inkscape:current-layer="layer1" />
  <defs
     id="defs1" />
  <g
     inkscape:label="Layer 1"
     inkscape:groupmode="layer"
     id="layer1"
     transform="translate(-60.826032,-120.95259)">
    <path
       style="fill:#172038;fill-opacity:1;stroke:#73bed3;stroke-width:3.175;stroke-dasharray:none;stroke-opacity:1"
       d="m 65.621544,159.32362 13.276266,-21.97766 22.04797,6.31657 13.64739,-16.40635 14.78043,-4.67649 15.94743,2.56071 11.51508,16.71902 25.14637,-2.34081 9.35577,19.58905 1.95515,21.16897 -12.06888,15.18432 6.04992,11.78599 -5.60132,14.80642 -10.65584,10.59138 -16.20055,0.45869 -8.55634,13.03488 -19.79252,7.27617 -9.19858,-16.20408 -26.20078,8.33593 -14.196352,-17.9458 1.912224,-16.60149 -3.412234,-11.90326 -12.873818,-9.45021 z"
       id="path1"
       sodipodi:nodetypes="cccccccccccccccccccccccc"
       inkscape:label="Base" />
    <path
       style="fill:#172038;stroke:#73bed3;stroke-width:3.175;stroke-dasharray:none"
       d="m 109.79878,163.67482 10.62673,-14.3442 18.63773,-1.049 4.50805,12.44685"
       id="path2"
       sodipodi:nodetypes="cccc"
       inkscape:label="Edge" />
    <path
       style="fill:#172038;stroke:#73bed3;stroke-width:3.175;stroke-dasharray:none"
       d="m 104.4361,203.3302 -11.329233,9.1104 20.991713,11.48486 18.51382,-5.86713"
       id="path3"
       sodipodi:nodetypes="cccc"
       inkscape:label="Edge" />
    <path
       style="fill:#172038;stroke:#73bed3;stroke-width:3.175;stroke-dasharray:none"
       d="m 165.28879,193.17913 7.4305,13.66835 -15.55769,13.15261 -16.22859,-3.44352"
       id="path4"
       sodipodi:nodetypes="cccc"
       inkscape:label="Edge" />
    <path
       style="fill:#172038;stroke:#73bed3;stroke-width:3.175;stroke-dasharray:none"
       d="m 158.36814,154.86926 14.94623,-1.89175 6.01879,20.04259 -7.51401,15.2565"
       id="path5"
       sodipodi:nodetypes="cccc"
       inkscape:label="Edge" />
    <path
       style="fill:#172038;stroke:#73bed3;stroke-width:3.175;stroke-dasharray:none"
       d="m 96.763641,161.36303 -10.698514,2.93621 4.550596,19.31206 21.774117,10.15574"
       id="path6"
       sodipodi:nodetypes="cccc"
       inkscape:label="Edge" />
  </g>
</svg>
