<?xml version="1.0" encoding="UTF-8" standalone="no"?>
<!-- Created with Inkscape (http://www.inkscape.org/) -->

<svg
   width="415.98911"
   height="480.34378"
   viewBox="0 0 103.99728 120.08595"
   version="1.1"
   id="svg1"
   inkscape:version="1.3 (0e150ed6c4, 2023-07-21)"
   sodipodi:docname="WarpGate.svg"
   inkscape:export-filename="WarpGateVortex.png"
   inkscape:export-xdpi="96"
   inkscape:export-ydpi="96"
   xmlns:inkscape="http://www.inkscape.org/namespaces/inkscape"
   xmlns:sodipodi="http://sodipodi.sourceforge.net/DTD/sodipodi-0.dtd"
   xmlns="http://www.w3.org/2000/svg"
   xmlns:svg="http://www.w3.org/2000/svg">
  <sodipodi:namedview
     id="namedview1"
     pagecolor="#ffffff"
     bordercolor="#000000"
     borderopacity="0.25"
     inkscape:showpageshadow="2"
     inkscape:pageopacity="0.0"
     inkscape:pagecheckerboard="0"
     inkscape:deskcolor="#d1d1d1"
     inkscape:document-units="px"
     inkscape:zoom="1.0343421"
     inkscape:cx="5.3173898"
     inkscape:cy="249.91732"
     inkscape:window-width="1920"
     inkscape:window-height="1017"
     inkscape:window-x="1912"
     inkscape:window-y="-8"
     inkscape:window-maximized="1"
     inkscape:current-layer="layer1" />
  <defs
     id="defs1">
    <inkscape:path-effect
       effect="copy_rotate"
       starting_point="88.66791,83.424306"
       origin="105.35549,137.00333"
       id="path-effect4"
       is_visible="true"
       lpeversion="1.2"
       lpesatellites=""
       method="normal"
       num_copies="6"
       starting_angle="105.23291"
       rotation_angle="60"
       gap="-0.01"
       copies_to_360="true"
       mirror_copies="false"
       split_items="false"
       link_styles="false" />
    <inkscape:path-effect
       effect="copy_rotate"
       starting_point="88.66791,83.424306"
       origin="105.35549,137.00333"
       id="path-effect2"
       is_visible="true"
       lpeversion="1.2"
       lpesatellites=""
       method="normal"
       num_copies="6"
       starting_angle="105.23291"
       rotation_angle="60"
       gap="-0.01"
       copies_to_360="true"
       mirror_copies="false"
       split_items="false"
       link_styles="false" />
    <filter
       style="color-interpolation-filters:sRGB;"
       inkscape:label="Blur"
       id="filter4"
       x="-0.081042162"
       y="-0.088077693"
       width="1.1620843"
       height="1.1761554">
      <feGaussianBlur
         stdDeviation="2 2"
         result="blur"
         id="feGaussianBlur4" />
    </filter>
  </defs>
  <g
     inkscape:groupmode="layer"
     id="layer2"
     inkscape:label="Layer 2"
     transform="translate(-54.356888,-77.061841)"
     style="display:none">
    <path
       style="fill:none;stroke:#73bed3;stroke-width:3;stroke-linecap:square;stroke-dasharray:none"
       d="M 105.12472,137.0752 86.869443,133.67512 79.590858,114.38197 85.371965,99.283863 M 105.30235,137.23912 93.230151,151.34861 72.882503,148.00548 62.69771,135.44984 m 42.83541,1.7174 6.18308,17.50958 -13.069065,15.95001 -15.965899,2.54247 m 22.905024,-36.23784 18.25528,3.40008 7.27858,19.29315 -5.7811,15.09811 m -19.93039,-37.95526 12.0722,-14.10949 20.34765,3.34313 10.18479,12.55564 m -42.83541,-1.7174 -6.183078,-17.50958 13.069058,-15.95001 15.9659,-2.54247"
       id="path2"
       sodipodi:nodetypes="cccc"
       inkscape:path-effect="#path-effect2"
       inkscape:original-d="m 105.35549,136.76163 8.67481,-16.41839 20.5848,-1.21216 12.696,10.00928" />
    <path
       style="display:inline;fill:none;stroke:#73bed3;stroke-width:3;stroke-linecap:square;stroke-dasharray:none;filter:url(#filter4)"
       d="M 105.12228,137.06684 87.001491,133.01063 80.423398,113.46755 86.745219,98.587743 M 105.29388,137.23705 92.720713,150.90201 72.506862,146.82727 62.78148,133.9125 m 42.74561,3.26104 5.54762,17.72117 -13.635756,15.46833 -16.047203,1.96505 m 24.196949,-35.38827 18.12079,4.05621 6.57809,19.54308 -6.32182,14.87981 m -18.54866,-38.64931 12.57317,-13.66496 20.21385,4.07474 9.72538,12.91477 m -42.74561,-3.26104 -5.547622,-17.72117 13.635762,-15.46833 16.0472,-1.96505"
       id="path3"
       sodipodi:nodetypes="cccc"
       inkscape:path-effect="#path-effect4"
       inkscape:original-d="m 105.35549,136.76163 8.67481,-16.41839 20.5848,-1.21216 12.696,10.00928" />
  </g>
  <g
     inkscape:label="Layer 1"
     inkscape:groupmode="layer"
     id="layer1"
     transform="translate(-54.356888,-77.061841)"
     style="display:inline">
    <path
       id="path1"
       style="fill:#253a5e;stroke:#73bed3;stroke-width:3.175;stroke-linecap:square;stroke-dasharray:none"
       d="M 106.35578,78.894925 55.944388,107.99961 v 58.20988 l 50.411392,29.1052 50.41088,-29.1052 v -58.20988 z m -0.19947,17.174145 34.87642,20.13572 v 40.27196 l -34.87642,20.13572 -34.876424,-20.13572 v -40.27196 z" />
  </g>
</svg>
